<svg id="Layer_1" data-name="Layer 1" xmlns="http://www.w3.org/2000/svg" viewBox="0 0 340.16 340.16"><title>icon-white-sledding</title>
  <rect x="-0.39" y="0.84" width="340.08" height="339.25" fill="none"/>
  <path d="M71.13,212.76l198.38,62.09v5.82H71.13S72.75,211.31,71.13,212.76Z" fill="#fff"/>
  <path d="M244.63,203.72a36.67,36.67,0,0,1-8.5,14.26L81.67,168.53l-3.39,10.6L224.8,226A36.93,36.93,0,0,1,198,227.67h0L75,188.35,71.59,199l124.69,39.87,0,0a47.71,47.71,0,0,0,11.31,1.77,48.33,48.33,0,0,0,47.62-33.43Z" fill="#fff"/>
  <path d="M154.48,136.51a12.31,12.31,0,1,0-7.34-15.78A12.31,12.31,0,0,0,154.48,136.51Z" fill="#fff"/>
  <path d="M164.92,194.86l-17.15-6.3,6.3-21.92L171.38,187l9.59-7.46-21.14-31.07h0s-1.94-7.63-8.76-9.41c-7.22-1.89-14.75,1.46-17.31,8.47l-12.23,33.45c-2.35,6.44,1.22,11.41,7.66,13.76l38.71,11.72,8.88-3.92C175.73,199,168.38,196.13,164.92,194.86Z" fill="#fff"/>
</svg>