<?xml version="1.0" encoding="UTF-8"?><svg id="Layer_2" xmlns="http://www.w3.org/2000/svg" viewBox="0 0 18.81 20.46"><g id="Layer_1-2"><path d="m0,8.91c0,.39-.01,2.1.04,2.19.12-.03,1.78-.79,2.18-.98,0,2.58.02,7.76.02,10.34h16.57v-2.11H4.4c0-2.29.01-6.91.02-9.21,4.37-1.98,9.77-4.95,14.25-6.96,0-.39.01-2.09-.03-2.18L0,8.91Z"/><path d="m13.38,7.33c-.27.1-.66.49-.75.76s-.09.69,0,.95c.09.28.43.63.72.76.33.14.75.14,1.07-.01.84-.39,1.06-1.47.44-2.12-.29-.3-.49-.39-.91-.41-.26,0-.43,0-.57.06Z"/><path d="m8.98,8.37c-.12.06-.28.18-.35.27-.17.22-2.38,4.03-2.45,4.23-.17.47.07,1.04.55,1.28.39.2,1,.11,1.28-.2.08-.09,2.18-3.65,2.43-4.14.28-.54-.02-1.28-.6-1.49-.26-.09-.6-.07-.86.05Z"/><path d="m12.02,9.91c-.76.26-1.74,1.1-2.29,1.95-.77,1.19-1.32,2.77-1.32,3.81,0,.88.29,1.32.95,1.45.28.05.18.09,3.04-1.29l1.29-.63.2.27c.11.14.49.66.84,1.13.38.52.69.91.78.96.34.21.79.13,1.04-.19.16-.2.19-.58.08-.79-.09-.18-1.93-2.7-2.11-2.89-.07-.08-.19-.17-.27-.2-.28-.12-.44-.08-1.6.39-.61.25-1.11.44-1.12.44-.01,0,.01-.08.05-.16.16-.3,1.38-2.36,1.41-2.36.01,0,.41.4.89.88.92.94.97.98,1.33.92.44-.07.68-.6.44-.98-.16-.27-2.5-2.63-2.69-2.72-.24-.12-.57-.11-.94.02Z"/></g></svg>