<?xml version="1.0" encoding="UTF-8"?><svg id="Layer_1" xmlns="http://www.w3.org/2000/svg" viewBox="0 0 48 48"><defs><style>.cls-1{fill:#fff;}</style></defs><path class="cls-1" d="m33.57,20.48c0-.67-.02-1.22-.05-1.22s-.32.27-.65.59l-.6.59-.78-.78-.78-.78,1.43-1.43,1.43-1.43v-1.52h-1.67l-1.39,1.39-1.39,1.39-.78-.78-.78-.78.61-.61.61-.61-1.22-.02-1.22-.02-.02-1.09-.02-1.09h1.23c.67,0,1.23-.02,1.23-.05s-.27-.32-.59-.65l-.59-.6.78-.78.78-.78,1.43,1.43,1.43,1.43.78-.02.78-.02.02-.78.02-.78-1.43-1.43-1.43-1.43.78-.78.78-.78.6.59c.33.33.62.59.65.59s.05-.55.05-1.22v-1.22h2.15v1.22c0,.67.02,1.22.05,1.22s.32-.27.65-.59l.6-.59.78.78.78.78-1.43,1.44-1.43,1.44.02.77.02.77.78.02.78.02,1.33-1.44c.73-.79,1.35-1.44,1.38-1.44.07,0,1.56,1.41,1.56,1.48,0,.03-.27.34-.59.69-.33.35-.59.65-.59.68s.58.04,1.3.04h1.3v2.23h-2.32l.57.54.57.54-.73.78c-.4.43-.74.79-.77.8-.02,0-.69-.58-1.48-1.32l-1.44-1.34h-1.68v1.51l1.43,1.43,1.43,1.43-.78.78-.78.78-.6-.59c-.33-.33-.62-.59-.65-.59s-.05.55-.05,1.22v1.22h-2.15v-1.22Z"/><rect class="cls-1" x="17.1" y="31.58" width="4.38" height="2.19"/><rect class="cls-1" x="17.1" y="36.11" width="4.38" height="2.19"/><rect class="cls-1" x="5" y="36.14" width="5.42" height="2.19"/><rect class="cls-1" x="5" y="31.58" width="5.42" height="2.19"/><rect class="cls-1" x="28.16" y="31.58" width="14.84" height="2.19"/><rect class="cls-1" x="28.16" y="36.11" width="14.84" height="2.19"/><rect class="cls-1" x="5" y="40.8" width="38" height="2.19"/><path class="cls-1" d="m23.75,29.42v8.91h2.18v-13.68c0-2.78-.04-3.16-.43-3.87-.64-1.19-2.12-1.92-3.44-1.68-1.34.24-2.36,1.18-2.71,2.49-.06.22-.1.76-.1,1.32v.95s2.19,0,2.19,0v-1.53c.02-.63.52-1.13,1.15-1.13s1.15.51,1.15,1.15v4.86h-8.88s0-2.54,0-2.54c0-2.78-.04-3.16-.43-3.87-.64-1.19-2.12-1.92-3.44-1.68-1.34.24-2.36,1.18-2.71,2.49-.06.22-.1.76-.1,1.32v.95s2.19,0,2.19,0v-1.53c.02-.63.52-1.13,1.15-1.13s1.15.51,1.15,1.15v15.99h2.18v-8.91h8.88Z"/></svg>