<?xml version="1.0" encoding="UTF-8"?><svg id="Layer_2" xmlns="http://www.w3.org/2000/svg" viewBox="0 0 12.3 20.16"><defs><style>.cls-1{fill-rule:evenodd;}</style></defs><g id="Layer_1-2"><path class="cls-1" d="m9.49,2C8.92.66,7.16-.28,5.68.07c-1.93.37-3.32,2.57-2.63,4.46,1.68,4.62,8.3,2.03,6.44-2.53Zm-2.32,3.13c-2.14,1.04-3.8-2.16-1.63-3.28,2.18-1.05,3.78,2.15,1.63,3.28Z"/><path class="cls-1" d="m10.45,15.49l-.55-.12-.03-2.96c-.03-2.8-.04-2.98-.26-3.38-.29-.53-.71-.93-1.2-1.13-.32-.13-.9-.16-3.47-.15-1.95,0-3.22.05-3.44.13-.2.06-.56.31-.8.55-1.49,1.49-.47,3.97,1.62,3.97h.52v3h-.32C1.15,15.39.02,16.47.02,17.78c0,.68.24,1.23.73,1.71.66.64.85.67,5.41.67s4.74-.02,5.44-.7c.49-.48.7-.97.7-1.68,0-1.07-.79-2.05-1.85-2.29Zm.01,2.76l-.25.25H2.11l-.25-.25c-.14-.14-.25-.35-.25-.47s.11-.33.25-.47c.23-.23.33-.25,1.2-.25s.96-.02,1.2-.25l.25-.25v-2.58c0-2.45-.01-2.59-.21-2.85-.2-.26-.27-.27-1.08-.27-.48,0-.98-.04-1.13-.1-.49-.19-.6-.8-.21-1.19.14-.14.57-.16,3.1-.16,2.92,0,2.94,0,3.1.23.14.2.16.72.16,3.58v3.35l.25.25c.22.22.35.25.99.25s.77.03.99.25c.32.32.32.62,0,.94Z"/></g></svg>