<?xml version="1.0" encoding="UTF-8"?><svg id="Layer_2" xmlns="http://www.w3.org/2000/svg" viewBox="0 0 22.42 17.15"><defs><style>.cls-1{fill-rule:evenodd;}</style></defs><g id="Layer_1-2"><path class="cls-1" d="m8.25.09c-.07.06-1.25,2.48-3.28,6.71C1.93,13.13,1.76,13.48.9,14.98c-1,1.75-1.01,1.79-.77,2.03.16.16.42.18.59.03.06-.05.32-.46.57-.91l.46-.81v.78s0,.78,0,.78l.13.13.13.13h20.15l.13-.14.13-.14v-1.68s-.02-1.68-.02-1.68l-3.39-6.65C17.01,2.92,15.58.15,15.51.09c-.15-.14-.33-.13-.8.05-.98.37-1.66.51-2.57.51-.92,0-1.79-.15-2.99-.51-.59-.18-.75-.19-.9-.05m6.45,1.02c-1.4.53-3.11.59-4.84.17-.24-.06-.44-.1-.45-.1,0,0,.14.32.33.71l.34.7.41.1c.23.05.57.13.75.16.19.04.38.08.42.11.25.13.3.5.09.7-.15.15-.31.16-.79.06-.17-.04-.32-.06-.33-.05,0,0,1.02,2.16,2.29,4.77l2.31,4.75h2.99s2.99,0,2.99,0l-.29-.58c-.64-1.27-5.89-11.56-5.92-11.59-.02-.02-.16.02-.31.08m-5.73,5.6v4.33s1.36.32,1.36.32c1.64.38,1.63.38,1.74.52.09.11.09.17.09,2.25v2.14h2.36v-2.48l-2.54-5.22c-1.4-2.87-2.65-5.44-2.78-5.7l-.23-.48v4.33m-3.63,1.4l-2.72,5.67v2.49h2.28v-2.2c0-2.16,0-2.21.09-2.32.11-.14.13-.15,1.73-.45.72-.14,1.33-.26,1.35-.28.02-.02.03-1.95.02-4.31V2.44s-2.73,5.67-2.73,5.67m7.67-5.05c-.27.15-.32.48-.11.7.19.19.44.19.63,0,.1-.09.12-.15.12-.31s-.02-.22-.14-.32c-.14-.14-.34-.16-.5-.08m-6.41,9.18l-.81.16v1.33c-.02.81,0,1.32.02,1.29.02-.02.43-.7.92-1.5.74-1.23.86-1.45.78-1.45-.05,0-.46.08-.9.16m2.94-.04c.04.06.44.72.89,1.47.45.75.83,1.37.84,1.37s.02-.57.02-1.26v-1.26l-.82-.19c-.45-.1-.86-.2-.91-.21-.08-.02-.08-.02-.02.08m-2.21,2.09l-1.18,1.96h1.19c.66.02,1.73.02,2.39.01h1.19s-1.18-1.97-1.18-1.97c-.65-1.08-1.19-1.96-1.2-1.96s-.55.88-1.2,1.96m8.93.28c.21.27.59.76.84,1.09l.46.6h3.97v-2.19h-5.65l.38.49m-.85,1.05v.65s.5,0,.5,0h.51l-.4-.51c-.22-.28-.44-.57-.5-.65l-.11-.13v.65M.01,16.71c0,.11,0,.15.02.1.01-.05.01-.14,0-.2-.01-.05-.02,0-.02.1"/></g></svg>