<?xml version="1.0" encoding="UTF-8"?><svg id="Layer_1" xmlns="http://www.w3.org/2000/svg" viewBox="0 0 32 40"><defs><style>.cls-1{fill:#fff;}.cls-2{fill:#72bc3d;}.cls-3{fill:#333;}.cls-4{fill:none;stroke:#333;stroke-linecap:round;stroke-linejoin:round;stroke-width:2px;}</style></defs><line class="cls-4" x1="16" y1="30.81" x2="16" y2="38.96"/><path class="cls-2" d="m16,30.54c-8.01,0-14.5-6.49-14.5-14.5S7.99,1.54,16,1.54s14.5,6.49,14.5,14.5c-.01,8-6.5,14.49-14.5,14.5Z"/><path class="cls-1" d="m11.71,7.5c-.28.02-.19.34-.24.58-.08,1.33-.93,2.38-.94,3.79-.04.51-.03.63.05.63.12,0,1.53.17,1.83.17.32-.06.19-.45.27-.77.07-.58.14-.87.37-1.4.35-.79.51-1.68.58-2.64,0-.11-.07-.2-.18-.21-.19,0-1.39-.14-1.74-.15Z"/><path class="cls-1" d="m15.45,7.54c-.07.54-.14,1.54-.46,2.16-.33.76-.46,1.32-.54,2.21-.04.48-.03.59.05.59.06,0,.52.05,1.03.1.89.07,1.04.27,1.09-.71.13-1.31.9-2.25.91-3.65,0-.17.13-.59-.16-.59-.06.01-1.91-.21-1.92-.11Z"/><path class="cls-1" d="m19.37,7.61c-.08.72-.12,1.42-.5,2.18-.27.63-.43,1.3-.5,2.12-.04.48-.03.59.04.59.1,0,1.08.1,1.71.18.14.03.34.03.35-.16-.05-1.13.93-3.2.92-3.74,0-.36.26-1.17-.11-1.13-.07.05-2.08-.31-1.91-.04Z"/><path class="cls-1" d="m7.58,14.81c-.04.18.13.99-.19.96-.36,0-1.11,0-1.47,0-.1,0-.19.08-.19.19v1.76c0,.1.08.19.19.19.37,0,1.1,0,1.46,0,.3-.02.18.67.23.83.02,2.83,2.09,5.23,4.81,5.64.61.1,6.51.1,7.12,0,2.64-.41,4.78-2.71,4.76-5.44,0,0,.04-.82.04-.82,0-.1.08-.18.18-.18l.77-.02.76-.02c.1,0,.18-.09.18-.19,0-.44,0-1.32,0-1.76.04-.32-.8-.15-.96-.19-.19-.04-.98.14-.96-.19,0-.38,0-1.16,0-1.55,0-.1-.08-.19-.19-.19h-8.18s-8.18,0-8.18,0c-.1,0-.19.08-.19.19v.77Zm14.6,2.88c.06,2.89-.56,3.76-2.78,4.59-.06.04-3.34,0-3.41.01-.07-.01-3.35.02-3.41-.01-1.33-.36-2.31-1.29-2.75-2.59,0,0-.02-1.83-.02-1.83l-.02-1.67c0-.11.08-.19.19-.19,3,0,9.02,0,12.02,0,.1,0,.19.08.19.19v1.51Z"/><path class="cls-3" d="m16,2.04c7.73,0,14,6.27,14,14s-6.27,14-14,14S2,23.77,2,16.04,8.27,2.04,16,2.04m0-1C7.72,1.04,1,7.76,1,16.04s6.72,15,15,15,15-6.72,15-15S24.28,1.04,16,1.04Z"/></svg>