<?xml version="1.0" encoding="UTF-8"?><svg id="Layer_1" xmlns="http://www.w3.org/2000/svg" viewBox="0 0 32 40"><defs><style>.cls-1{fill:#fff;}.cls-2{fill:#72bc3d;}.cls-3{fill:#333;}.cls-4{fill:none;stroke:#333;stroke-linecap:round;stroke-linejoin:round;stroke-width:2px;}</style></defs><line class="cls-4" x1="16" y1="30.81" x2="16" y2="38.96"/><path class="cls-2" d="m16,30.54c-8.01,0-14.5-6.49-14.5-14.5S7.99,1.54,16,1.54s14.5,6.49,14.5,14.5c-.01,8-6.5,14.49-14.5,14.5Z"/><g id="iceswim"><path class="cls-1" d="m21.26,12.31s-.18.15-.36.33l-.33.33-.43-.43-.43-.43.79-.79.79-.79v-.84h-.92l-.77.77-.77.77-.43-.43-.43-.43.34-.34.34-.34h-.67l-.67-.02v-.6l-.02-.6h.68c.37,0,.68-.01.68-.03s-.15-.18-.33-.36l-.33-.33.43-.43.43-.43.79.79.79.79h.43l.43-.02v-.43l.02-.43-.79-.79-.79-.79.43-.43.43-.43.33.33c.18.18.34.33.36.33s.03-.3.03-.68v-.68h1.19v.68c0,.37.01.68.03.68s.18-.15.36-.33l.33-.33.43.43.43.43-.79.79-.79.79v.43l.02.43h.43l.43.02.73-.8c.4-.44.75-.8.76-.8.04,0,.86.78.86.82,0,.02-.15.19-.33.38s-.33.36-.33.38.32.02.72.02h.72v1.23h-1.28l.32.3.32.3-.4.43c-.22.24-.41.44-.42.44s-.38-.32-.82-.73l-.8-.74h-.93v.84l.79.79.79.79-.43.43-.43.43-.33-.33c-.18-.18-.34-.33-.36-.33s-.03.3-.03.68v.68h-1.19l-.05-1.37Z"/><rect class="cls-1" x="12.19" y="19.12" width="2.42" height="1.21"/><rect class="cls-1" x="12.19" y="21.62" width="2.42" height="1.21"/><rect class="cls-1" x="5.5" y="21.64" width="2.99" height="1.21"/><rect class="cls-1" x="5.5" y="19.12" width="2.99" height="1.21"/><rect class="cls-1" x="18.3" y="19.12" width="8.2" height="1.21"/><rect class="cls-1" x="18.3" y="21.62" width="8.2" height="1.21"/><rect class="cls-1" x="5.5" y="24.21" width="21" height="1.21"/><path class="cls-1" d="m15.86,17.93v4.92h1.21v-7.56c0-1.53-.02-1.74-.24-2.14-.36-.66-1.17-1.06-1.9-.93-.74.13-1.31.65-1.5,1.38-.03.12-.06.42-.06.73v.52h1.21v-.85c0-.35.29-.63.64-.63s.64.28.64.64v2.68h-4.9v-1.4c0-1.53-.02-1.74-.24-2.14-.36-.66-1.17-1.06-1.9-.93-.74.13-1.31.65-1.5,1.38-.03.12-.06.42-.06.73v.52h1.21v-.85c0-.35.29-.63.64-.63s.64.28.64.64v8.84h1.21v-4.92s4.9,0,4.9,0Z"/></g><path class="cls-3" d="m16,2.04c7.73,0,14,6.27,14,14s-6.27,14-14,14S2,23.77,2,16.04,8.27,2.04,16,2.04m0-1C7.72,1.04,1,7.76,1,16.04s6.72,15,15,15,15-6.72,15-15S24.28,1.04,16,1.04Z"/></svg>