<?xml version="1.0" encoding="UTF-8"?><svg id="Layer_1" xmlns="http://www.w3.org/2000/svg" viewBox="0 0 32 40"><defs><style>.cls-1{fill:#72bc3d;}.cls-2{fill:#333;}.cls-3{fill:none;stroke:#333;stroke-linecap:round;stroke-linejoin:round;stroke-width:2px;}.cls-4{fill:#fff;fill-rule:evenodd;}</style></defs><line class="cls-3" x1="16" y1="30.81" x2="16" y2="38.96"/><path class="cls-1" d="m16,30.54c-8.01,0-14.5-6.49-14.5-14.5S7.99,1.54,16,1.54s14.5,6.49,14.5,14.5c-.01,8-6.5,14.49-14.5,14.5Z"/><path class="cls-4" d="m19.31,7.59c-.57-1.34-2.33-2.28-3.81-1.92-1.93.37-3.32,2.57-2.63,4.46,1.68,4.62,8.3,2.03,6.44-2.53Zm-2.32,3.13c-2.14,1.04-3.8-2.16-1.63-3.28,2.18-1.05,3.78,2.15,1.63,3.28Z"/><path class="cls-4" d="m20.28,21.08l-.55-.12-.03-2.96c-.03-2.8-.04-2.98-.26-3.38-.29-.53-.71-.93-1.2-1.13-.32-.13-.9-.16-3.47-.15-1.95,0-3.22.05-3.44.13-.2.06-.56.31-.8.55-1.49,1.49-.47,3.97,1.62,3.97h.52v3h-.32c-1.38,0-2.51,1.07-2.51,2.38,0,.68.24,1.23.73,1.71.66.64.85.67,5.41.67s4.74-.02,5.44-.7c.49-.48.7-.97.7-1.68,0-1.07-.79-2.05-1.85-2.29Zm.01,2.76l-.25.25h-8.09l-.25-.25c-.14-.14-.25-.35-.25-.47s.11-.33.25-.47c.23-.23.33-.25,1.2-.25s.96-.02,1.2-.25l.25-.25v-2.58c0-2.45-.01-2.59-.21-2.85-.2-.26-.27-.27-1.08-.27-.48,0-.98-.04-1.13-.1-.49-.19-.6-.8-.21-1.19.14-.14.57-.16,3.1-.16,2.92,0,2.94,0,3.1.23.14.2.16.72.16,3.58v3.35l.25.25c.22.22.35.25.99.25s.77.03.99.25c.32.32.32.62,0,.94Z"/><path class="cls-2" d="m16,2.04c7.73,0,14,6.27,14,14s-6.27,14-14,14S2,23.77,2,16.04,8.27,2.04,16,2.04m0-1C7.72,1.04,1,7.76,1,16.04s6.72,15,15,15,15-6.72,15-15S24.28,1.04,16,1.04Z"/></svg>