<?xml version="1.0" encoding="UTF-8"?><svg id="Layer_1" xmlns="http://www.w3.org/2000/svg" viewBox="0 0 32 40"><defs><style>.cls-1{fill:#fff;}.cls-2{fill:#72bc3d;}.cls-3{fill:#333;}.cls-4{fill:none;stroke:#333;stroke-linecap:round;stroke-linejoin:round;stroke-width:2px;}</style></defs><line class="cls-4" x1="16" y1="30.81" x2="16" y2="38.96"/><path class="cls-2" d="m16,30.54c-8.01,0-14.5-6.49-14.5-14.5S7.99,1.54,16,1.54s14.5,6.49,14.5,14.5c-.01,8-6.5,14.49-14.5,14.5Z"/><path class="cls-1" d="m5.79,13.68c0,.39-.01,2.1.04,2.19.12-.03,1.78-.79,2.18-.98,0,2.58.02,7.76.02,10.34h16.57v-2.11h-14.41c0-2.29.01-6.91.02-9.21,4.37-1.98,9.77-4.95,14.25-6.96,0-.39.01-2.09-.03-2.18L5.79,13.68Z"/><path class="cls-1" d="m19.17,12.1c-.27.1-.66.49-.75.76s-.09.69,0,.95c.09.28.43.63.72.76.33.14.75.14,1.07-.01.84-.39,1.06-1.47.44-2.12-.29-.3-.49-.39-.91-.41-.26,0-.43,0-.57.06Z"/><path class="cls-1" d="m14.77,13.13c-.12.06-.28.18-.35.27-.17.22-2.38,4.03-2.45,4.23-.17.47.07,1.04.55,1.28.39.2,1,.11,1.28-.2.08-.09,2.18-3.65,2.43-4.14.28-.54-.02-1.28-.6-1.49-.26-.09-.6-.07-.86.05Z"/><path class="cls-1" d="m17.82,14.68c-.76.26-1.74,1.1-2.29,1.95-.77,1.19-1.32,2.77-1.32,3.81,0,.88.29,1.32.95,1.45.28.05.18.09,3.04-1.29l1.29-.63.2.27c.11.14.49.66.84,1.13.38.52.69.91.78.96.34.21.79.13,1.04-.19.16-.2.19-.58.08-.79-.09-.18-1.93-2.7-2.11-2.89-.07-.08-.19-.17-.27-.2-.28-.12-.44-.08-1.6.39-.61.25-1.11.44-1.12.44-.01,0,.01-.08.05-.16.16-.3,1.38-2.36,1.41-2.36.01,0,.41.4.89.88.92.94.97.98,1.33.92.44-.07.68-.6.44-.98-.16-.27-2.5-2.63-2.69-2.72-.24-.12-.57-.11-.94.02Z"/><path class="cls-3" d="m16,2.04c7.73,0,14,6.27,14,14s-6.27,14-14,14S2,23.77,2,16.04,8.27,2.04,16,2.04m0-1C7.72,1.04,1,7.76,1,16.04s6.72,15,15,15,15-6.72,15-15S24.28,1.04,16,1.04Z"/></svg>