<?xml version="1.0" encoding="UTF-8"?><svg id="Layer_1" xmlns="http://www.w3.org/2000/svg" viewBox="0 0 32 40"><defs><style>.cls-1{fill:#fff;}.cls-2{fill:#72bc3d;}.cls-3{fill:none;stroke:#231f20;stroke-linecap:round;stroke-linejoin:round;stroke-width:2px;}</style></defs><line class="cls-3" x1="16" y1="30.77" x2="16" y2="38.92"/><path class="cls-1" d="m16,1c8.28,0,15,6.72,15,15s-6.72,15-15,15S1,24.28,1,16,7.72,1,16,1m0-1C7.16,0,0,7.16,0,16s7.16,16,16,16,16-7.16,16-16S24.84,0,16,0Z"/><path class="cls-2" d="m15.99,31.01C7.7,31.01.98,24.29.98,16S7.7.99,15.99.99s15.01,6.72,15.01,15.01-6.72,15-15.01,15.01Z"/><path class="cls-1" d="m15.65,16.06h-4.4c-.22,0-.37.15-.37.37v4.4c0,.22.15.37.37.37h4.4c.22,0,.37-.15.37-.37v-4.4c0-.22-.15-.37-.37-.37Zm-.37,2.2h-1.47v-1.47h1.47v1.47Zm-2.2-1.47v1.47h-1.47v-1.47h1.47Zm-1.47,2.2h1.47v1.47h-1.47v-1.47Zm2.2,1.47v-1.47h1.47v1.47h-1.47Z"/><path class="cls-1" d="m20.04,20.82h-.37c-.22,0-.37.15-.37.37s.15.37.37.37h.37c.22,0,.37-.15.37-.37s-.15-.37-.37-.37Z"/><path class="cls-1" d="m26.27,24.11h-1.46l.03-6.02c.55,0,1.09-.22,1.5-.65.84-.88.84-2.27,0-3.11l-1.9-1.9v-3.33c0-.4.22-.66.4-.84.22-.18.4-.44.33-.88-.11-.51-.55-.84-1.14-.84h-.96c.13-.22.36-.37.63-.37.81,0,1.47-.66,1.47-1.47,0-.22-.15-.37-.37-.37s-.37.15-.37.37c0,.4-.33.73-.73.73-.68,0-1.25.47-1.42,1.1h-1.11c-.59,0-1.03.33-1.14.84-.04.33.07.66.33.92.16.14.26.26.32.4l-2.27-2.27c-1.36-1.36-3.52-1.36-4.87,0l-6.63,6.63c-1.21,1.25-1.9,2.89-1.9,4.65v2.86c0,.84.62,1.5,1.39,1.54h.07c.25,0,.5-.07.73-.2v2.21h-1.47c-.22,0-.37.15-.37.37v1.1c0,.22.15.37.37.37h20.51c.22,0,.37-.15.37-.37v-1.1c0-.22-.15-.37-.37-.37Zm-5.38-16.34c-.11-.11-.11-.18-.11-.29.04-.22.33-.22.4-.22h2.86c.07,0,.37,0,.4.22,0,.07,0,.11-.11.26-.4.37-.62.88-.62,1.36v2.6l-2.2-2.2h0v-.4c0-.48-.22-.92-.62-1.32Zm-13.88,13.41c-.15.11-.33.18-.55.18-.4-.04-.7-.4-.7-.81v-2.86c0-1.54.59-3.04,1.68-4.14l6.67-6.59c.51-.55,1.21-.81,1.9-.81s1.39.26,1.9.77l2.86,2.86,3.66,3.66,1.39,1.39c.59.59.59,1.5,0,2.09-.26.29-.66.44-1.03.44-.06,0-.12,0-.18-.01-.02-.01-.05-.02-.08-.02-.07-.04-.15-.04-.22-.07,0,0-.04,0-.07-.04-.07,0-.11-.04-.18-.07-.04,0-.04-.04-.07-.04,0,0,0,0,0,0-.07-.05-.15-.11-.21-.18l-5.93-5.97c-.48-.51-1.14-.77-1.83-.77s-1.36.29-1.83.77l-3.63,3.63c-.73.73-1.14,1.72-1.14,2.75v1.39c0,.44-.33.77-.7.81-.22.04-.4-.04-.55-.18-.15-.15-.22-.33-.22-.55s-.15-.37-.37-.37-.37.15-.37.37v1.83c0,.22-.07.4-.22.55Zm.95-.55v-.55c.22.15.51.18.81.18.77-.04,1.39-.73,1.39-1.54v-1.39c0-.84.33-1.65.92-2.23l3.63-3.63c.37-.37.81-.55,1.32-.55s.95.18,1.32.55l5.9,5.97c.14.13.29.24.45.34.07.07.14.1.25.14.04,0,.07.04.11.04h.02s0,0,.01,0v6.15h-2.56v-7.69c0-.22-.15-.37-.37-.37h-4.4c-.22,0-.37.15-.37.37v7.69H7.96v-3.48Zm12.82,3.48h-3.66v-7.33h3.66v7.33Zm5.13,1.1H6.12v-.37h19.78v.37Z"/><path class="cls-1" d="m18.94,20.09c.81,0,1.47-.66,1.47-1.47s-.66-1.47-1.47-1.47-1.47.66-1.47,1.47c0,.81.66,1.47,1.47,1.47Zm0-2.2c.4,0,.73.33.73.73s-.33.73-.73.73-.73-.33-.73-.73.33-.73.73-.73Z"/><path class="cls-1" d="m21.51,6.17c.22,0,.37-.15.37-.37,0-.4.33-.73.73-.73.22,0,.37-.15.37-.37s-.15-.37-.37-.37c-.81,0-1.47.66-1.47,1.47,0,.22.15.37.37.37Z"/><path class="cls-1" d="m7.59,17.52c.22,0,.37-.15.37-.37v-.51c0-.44.18-.81.59-1.1.15-.11.18-.37.07-.51s-.37-.18-.51-.07c-.59.4-.88.99-.88,1.65v.55c0,.22.15.37.37.37Z"/></svg>